<svg id="Capa_1" enable-background="new 0 0 512 512" height="512" viewBox="0 0 512 512" width="512" xmlns="http://www.w3.org/2000/svg"><g><path d="m455.573 301.062c0 15.122-12.247 63.057-27.357 63.057h-5.092s-20.643 0-55.012 0c-2.671 0-5.271-35.425-7.799-34.913v-55.501h67.904c7.549 0 14.394 3.065 19.343 8.014 4.948 4.949 8.013 11.794 8.013 19.343z" fill="#f1ce64"/><path d="m423.116 310.673c0-33.364-27.047-60.411-60.411-60.411h-275.089c-26.94 0-48.778-21.839-48.778-48.778 0-26.94 21.839-48.778 48.778-48.778h275.09c33.364 0 60.411 27.047 60.411 60.411v97.556" fill="#678cd2"/><path d="m423.116 351.271c0-33.364-27.047-60.411-60.411-60.411h-275.089c-26.94 0-48.778-21.839-48.778-48.778 0-26.94 21.839-48.778 48.778-48.778h275.09c33.364 0 60.411 27.047 60.411 60.411v97.556" fill="#4172c7"/><g><path d="m323.294 8.337 141.54 141.54c11.116 11.116 11.116 29.142 0 40.258l-259.185 259.186c-11.116 11.116-29.142 11.116-40.258 0l-101.216-101.216-16.961-103.946 235.822-235.822c11.116-11.116 29.142-11.116 40.258 0z" fill="#c8ea73"/><g fill="#aad880"><circle cx="244.342" cy="228.829" r="89.985"/><path d="m427.393 112.436 37.441 37.441c11.116 11.116 11.116 29.142 0 40.258l-37.441 37.441c-31.799-31.799-31.791-83.348 0-115.14z"/><path d="m323.294 8.337 37.441 37.441c-31.792 31.792-83.348 31.792-115.139 0l37.441-37.441c11.115-11.116 29.141-11.116 40.257 0z"/></g><g><circle cx="342.852" cy="130.32" fill="#aad880" r="17.3"/></g><path d="m249.997 216.758c-8.539 4.079-18.227 8.364-25.335 9.223-2.758.334-5.967-1.539-8.174-4.771-1.722-2.522-2.968-6.228-2.153-9.977l7.548 7.548c3.205 3.205 8.402 3.205 11.607 0s3.205-8.402 0-11.607l-8.389-8.389c3.084-1.516 5.612-1.821 6.126-1.868 4.512-.414 7.837-4.409 7.422-8.923-.414-4.514-4.41-7.837-8.923-7.422-1.997.184-9.202 1.181-16.595 6.244l-3.669-3.669c-3.205-3.205-8.402-3.205-11.607 0s-3.205 8.402 0 11.607l4.078 4.078c-.341.569-.676 1.152-1.001 1.757-4.997 9.305-4.23 20.754 2.001 29.878 5.71 8.361 14.79 12.887 23.698 11.81 7.629-.922 16.449-4.024 30.441-10.708 10.76-5.14 17.053 2.123 18.726 4.472 2.968 4.167 4.449 10.211 2.576 16.018l-13.682-13.682c-3.205-3.205-8.402-3.205-11.607 0s-3.205 8.402 0 11.607l14.851 14.851c-3.368 2.63-6.505 3.879-12.258 5.082-4.438.928-7.282 5.277-6.354 9.713.928 4.437 5.276 7.282 9.713 6.354 9.715-2.031 15.13-4.846 20.564-9.484l4.11 4.11c3.205 3.205 8.402 3.205 11.607 0s3.205-8.402 0-11.607l-4.653-4.653c7.721-12.666 5.604-27.86-1.497-37.832-9.191-12.905-24.566-16.736-39.171-9.76z" fill="#c8ea73"/></g><path d="m423.116 310.673v140.912c0 33.368-27.047 60.415-60.415 60.415h-275.085c-13.476 0-25.664-5.462-34.501-14.287-8.825-8.825-14.287-21.013-14.287-34.489v-261.741c0 26.94 21.848 48.775 48.787 48.775h275.086c33.368 0 60.415 27.048 60.415 60.415z" fill="#9dc6fb"/><path d="m157.546 512h-69.931c-13.475 0-25.664-5.461-34.495-14.292-8.83-8.82-14.292-21.008-14.292-34.484v-261.738c0 26.941 21.845 48.776 48.786 48.776h21.144v212.962c0 13.476 5.461 25.664 14.292 34.484 8.831 8.831 21.02 14.292 34.496 14.292z" fill="#80b4fb"/><path d="m455.571 301.057v109.059c0 15.11-12.259 27.369-27.369 27.369h-44.828c-15.062 0-28.681-6.106-38.555-15.968-9.862-9.874-15.968-23.505-15.968-38.567 0-30.112 24.411-54.523 54.523-54.523h39.748 5.092c15.11-.001 27.357-12.248 27.357-27.37z" fill="#f5de7d"/><circle cx="383.374" cy="382.956" fill="#678cd2" r="22.326"/><path d="m391.476 403.763c-2.515.991-5.248 1.523-8.107 1.523-12.323 0-22.32-9.996-22.32-22.33s9.996-22.32 22.32-22.32c2.859 0 5.593.532 8.107 1.523-8.327 3.224-14.233 11.322-14.233 20.796 0 9.476 5.906 17.573 14.233 20.808z" fill="#4172c7"/></g></svg>